<svg width="1440" height="1024" viewBox="0 0 1440 1024" fill="none" xmlns="http://www.w3.org/2000/svg">
<rect width="1440" height="1024" fill="#E5E5E5"/>
<g id="Desktop - 1" clip-path="url(#clip0_0_1)">
<rect width="1440" height="1024" fill="white"/>
<g id="bulb with wire">
<g id="bulb">
<path id="shadow" d="M1108.38 588.597L1109.99 588.568L1104.65 577.257C1098.95 561.262 1091.63 545.735 1082.74 530.829L926.18 199.079C921.183 188.491 912.362 179.478 900.799 173.146C889.236 166.814 875.434 163.438 861.088 163.434L625.102 163.358C609.843 163.353 594.697 167.161 581.755 174.257C568.814 181.352 558.715 191.384 552.854 202.969L372.491 559.441C366.712 569.413 361.562 579.591 357.062 589.933L350.939 602.036L352.123 602.015C334.149 649.105 329.743 698.3 339.247 745.764C348.751 793.228 371.91 837.679 406.918 875.652C441.925 913.625 487.836 944.095 541.071 964.685C594.306 985.276 653.427 995.431 713.825 994.36C774.224 993.288 834.268 981.018 889.277 958.507C944.286 935.996 992.774 903.852 1030.96 864.58C1069.15 825.308 1096 779.969 1109.43 732.098C1122.86 684.227 1122.5 635.117 1108.38 588.597L1108.38 588.597Z" fill="black"/>
<path id="wire" d="M733.876 -29.0503L730.303 83.6821C730.272 84.5207 729.971 85.2977 729.465 85.8432C728.959 86.3887 728.289 86.6585 727.602 86.5936C726.915 86.5287 726.266 86.1344 725.797 85.4968C725.329 84.8592 725.079 84.0302 725.101 83.1908L728.674 -29.5415C728.705 -30.3801 729.006 -31.1571 729.512 -31.7026C730.018 -32.2482 730.688 -32.5179 731.375 -32.453C732.062 -32.3881 732.711 -31.9938 733.179 -31.3562C733.648 -30.7186 733.898 -29.8896 733.876 -29.0502L733.876 -29.0503Z" fill="#3F3D56"/>
<path id="glass" d="M679.317 161.524C680.588 161.322 681.872 161.211 683.158 161.192L760.341 160.05C765.243 159.976 770.03 161.241 774.113 163.689C778.196 166.137 781.397 169.662 783.325 173.831L841.151 298.831C844.365 304.463 847.082 310.339 849.274 316.401L851.121 321.978C856.549 339.87 857.421 358.789 853.666 377.242C849.912 395.694 841.635 413.174 829.488 428.303C817.341 443.432 801.658 455.794 783.675 464.415C765.692 473.036 745.903 477.678 725.869 477.977L725.884 475.965C745.698 475.661 765.265 471.037 783.025 462.462C800.784 453.887 816.244 441.598 828.171 426.576C840.098 411.554 848.162 394.214 851.72 375.94C855.278 357.667 854.232 338.965 848.664 321.326L847.263 317.157C845.088 311.147 842.394 305.321 839.208 299.736L781.344 174.663C779.582 170.851 776.654 167.628 772.92 165.389C769.187 163.15 764.81 161.994 760.327 162.061L683.144 163.204C678.377 163.279 673.72 164.731 669.812 167.362C665.905 169.993 662.94 173.672 661.326 177.893L659.298 177.257C660.842 173.222 663.518 169.628 667.043 166.858C670.568 164.088 674.81 162.245 679.317 161.524V161.524Z" fill="#D0CDE1"/>
<path id="captop" d="M676.254 101.169L775.155 99.7038C775.891 99.6969 776.594 99.9624 777.11 100.442C777.625 100.922 777.912 101.577 777.907 102.264C777.902 102.952 777.606 103.615 777.084 104.111C776.562 104.606 775.855 104.892 775.119 104.907L676.218 106.372C675.851 106.379 675.487 106.319 675.148 106.194C674.809 106.069 674.502 105.883 674.243 105.645C673.984 105.407 673.779 105.122 673.641 104.808C673.502 104.493 673.431 104.155 673.434 103.812C673.436 103.469 673.511 103.128 673.654 102.81C673.798 102.491 674.006 102.201 674.268 101.955C674.53 101.709 674.841 101.513 675.182 101.378C675.522 101.244 675.887 101.172 676.254 101.169V101.169Z" fill="#3F3D56"/>
<path id="capcenter" d="M676.815 120.67L775.716 119.205C776.084 119.198 776.447 119.258 776.786 119.383C777.125 119.508 777.433 119.694 777.692 119.932C777.95 120.17 778.155 120.455 778.294 120.769C778.433 121.084 778.503 121.422 778.5 121.765C778.498 122.108 778.423 122.449 778.28 122.767C778.137 123.086 777.928 123.377 777.666 123.622C777.404 123.868 777.093 124.064 776.753 124.199C776.412 124.334 776.047 124.405 775.68 124.408L676.779 125.873C676.412 125.881 676.048 125.82 675.709 125.695C675.37 125.571 675.062 125.384 674.804 125.146C674.545 124.908 674.34 124.624 674.201 124.309C674.063 123.995 673.992 123.656 673.995 123.313C673.997 122.97 674.072 122.63 674.215 122.311C674.359 121.992 674.567 121.702 674.829 121.456C675.091 121.21 675.402 121.015 675.742 120.88C676.083 120.745 676.448 120.674 676.815 120.67V120.67Z" fill="#3F3D56"/>
<path id="capbase" d="M677.376 140.171L776.277 138.706C777.014 138.699 777.716 138.965 778.232 139.445C778.747 139.924 779.034 140.579 779.029 141.267C779.024 141.954 778.729 142.618 778.206 143.113C777.684 143.608 776.977 143.895 776.241 143.909L677.34 145.375C676.604 145.381 675.901 145.116 675.386 144.636C674.87 144.156 674.584 143.501 674.588 142.814C674.593 142.127 674.889 141.463 675.411 140.968C675.934 140.473 676.64 140.186 677.376 140.171L677.376 140.171Z" fill="#3F3D56"/>
<path id="caphead" d="M725.833 81.8802C706.216 82.1708 690.242 92.6162 690.154 105.211L761.196 104.158C761.283 91.5639 745.451 81.5896 725.833 81.8802Z" fill="#3F3D56"/>
<path id="gasfilling" d="M844.382 320.945L844.886 320.927L843 316.85C840.912 311.075 838.323 305.478 835.258 300.114L779.936 180.527C778.171 176.71 775.239 173.483 771.5 171.241C767.761 168.999 763.378 167.84 758.889 167.907L685.049 169.001C680.274 169.071 675.608 170.525 671.694 173.16C667.78 175.795 664.812 179.482 663.199 183.711L613.572 313.866C611.954 317.511 610.537 321.227 609.326 325L607.641 329.419L608.012 329.405C603.287 346.571 602.847 364.436 606.728 381.606C610.608 398.777 618.703 414.79 630.381 428.398C642.06 442.005 657.007 452.838 674.057 460.054C691.107 467.269 709.8 470.672 728.678 469.996C747.555 469.321 766.109 464.585 782.891 456.158C799.673 447.732 814.231 435.842 825.429 421.416C836.628 406.99 844.164 390.418 847.452 372.99C850.739 355.563 849.689 337.752 844.382 320.945L844.382 320.945Z" fill="#3F3D56"/>
<path id="leadwire2" d="M684.465 318.207L711.814 194.245L709.086 193.775L681.737 317.737L684.465 318.207Z" fill="#D0CDE1"/>
<path id="leadwire1" d="M761.146 318.074L763.881 317.523L738.272 194.342L735.537 194.892L761.146 318.074Z" fill="#D0CDE1"/>
<path id="filament" d="M730.488 335.084C734.708 335.021 738.604 337.513 740.799 339.249C741.518 339.818 742.226 340.415 742.935 341.013C745.516 343.19 747.952 345.247 751.016 346.034C757.777 347.773 764.619 342.752 770.417 337.61L772.312 339.477C765.938 345.132 758.331 350.629 750.22 348.544C746.536 347.596 743.743 345.24 741.042 342.961C740.355 342.381 739.668 341.802 738.971 341.25C736.689 339.445 732.263 336.636 728.231 338.088C726.555 338.842 725.053 339.904 723.817 341.209C722.864 342.125 721.836 342.97 720.745 343.739C718.515 345.192 715.889 346.006 713.197 346.079C710.506 346.152 707.869 345.48 705.619 344.148C704.811 343.636 704.035 343.082 703.294 342.489C701.845 341.371 700.477 340.316 698.882 340.107C696.523 339.796 694.333 341.372 692.012 343.04C689.618 344.76 687.144 346.539 684.04 346.691C683.939 346.696 683.837 346.699 683.737 346.701C678.184 346.783 674.792 341.595 672.713 337.65L675.218 336.46C678.044 341.821 680.836 344.267 683.957 344.092C686.181 343.984 688.203 342.53 690.343 340.991C693.027 339.062 695.805 337.066 699.33 337.53C701.689 337.839 703.422 339.175 705.097 340.467C705.761 341 706.455 341.498 707.178 341.959C708.967 342.997 711.052 343.519 713.179 343.462C715.306 343.404 717.383 342.77 719.156 341.635C720.128 340.945 721.043 340.188 721.893 339.369C723.397 337.799 725.232 336.536 727.278 335.663C728.307 335.294 729.394 335.097 730.488 335.084Z" fill="#D0CDE1"/>
<path id="text" d="M520.624 659.344L540.208 659.344C541.792 659.344 542.944 659.536 543.664 659.92C544.384 660.256 544.864 660.808 545.104 661.576C545.344 662.344 545.464 663.376 545.464 664.672C545.464 665.92 545.344 666.928 545.104 667.696C544.864 668.464 544.456 668.992 543.88 669.28C542.968 669.76 541.72 670 540.136 670L514.216 670C510.856 670 508.888 669.088 508.312 667.264C508.024 666.496 507.88 665.272 507.88 663.592L507.88 623.56C507.88 622.456 507.904 621.64 507.952 621.112C508.048 620.536 508.288 619.888 508.672 619.168C509.344 617.872 511.216 617.224 514.288 617.224C517.648 617.224 519.64 618.112 520.264 619.888C520.504 620.704 520.624 621.952 520.624 623.632L520.624 659.344ZM582.391 646.528C582.391 649.456 581.647 651.64 580.159 653.08C578.719 654.472 577.111 655.168 575.335 655.168L558.271 655.168C558.271 656.512 559.063 657.64 560.647 658.552C562.231 659.464 563.815 659.92 565.399 659.92C568.183 659.92 570.367 659.632 571.951 659.056L572.743 658.768C573.895 658.24 574.855 657.976 575.623 657.976C577.159 657.976 578.479 659.056 579.583 661.216C580.207 662.512 580.519 663.616 580.519 664.528C580.519 668.8 575.407 670.936 565.183 670.936C561.631 670.936 558.463 670.336 555.679 669.136C552.943 667.888 550.807 666.256 549.271 664.24C546.247 660.352 544.735 656.008 544.735 651.208C544.735 645.16 546.679 640.336 550.567 636.736C554.503 633.088 559.399 631.264 565.255 631.264C571.927 631.264 576.823 633.616 579.943 638.32C581.575 640.816 582.391 643.552 582.391 646.528ZM567.199 648.616C569.023 648.616 569.935 647.848 569.935 646.312C569.935 645.208 569.503 644.32 568.639 643.648C567.823 642.976 566.623 642.64 565.039 642.64C563.503 642.64 561.967 643.288 560.431 644.584C558.895 645.832 558.127 647.176 558.127 648.616L567.199 648.616ZM606.977 644.8L602.297 644.512L602.297 654.448C602.297 655.744 602.489 656.68 602.873 657.256C603.305 657.832 604.073 658.12 605.177 658.12C606.329 658.12 607.193 658.168 607.769 658.264C608.393 658.312 609.041 658.528 609.713 658.912C610.817 659.536 611.369 661.144 611.369 663.736C611.369 666.76 610.697 668.608 609.353 669.28C608.633 669.616 607.985 669.832 607.409 669.928C606.881 669.976 606.089 670 605.033 670C600.041 670 596.249 668.872 593.657 666.616C591.065 664.36 589.769 660.544 589.769 655.168L589.769 644.512C588.857 644.656 587.873 644.728 586.817 644.728C585.761 644.728 584.873 644.32 584.153 643.504C583.481 642.688 583.145 641.296 583.145 639.328C583.145 637.36 583.265 635.944 583.505 635.08C583.745 634.168 584.081 633.52 584.513 633.136C585.281 632.512 586.241 632.2 587.393 632.2L589.769 632.488L589.769 625.072C589.769 623.968 589.793 623.152 589.841 622.624C589.937 622.096 590.177 621.52 590.561 620.896C591.185 619.696 593.033 619.096 596.105 619.096C599.369 619.096 601.313 619.984 601.937 621.76C602.177 622.528 602.297 623.752 602.297 625.432L602.297 632.488C604.409 632.296 605.993 632.2 607.049 632.2C608.153 632.2 608.969 632.248 609.497 632.344C610.073 632.392 610.721 632.608 611.441 632.992C612.689 633.616 613.313 635.464 613.313 638.536C613.313 641.56 612.665 643.408 611.369 644.08C610.649 644.416 610.001 644.632 609.425 644.728C608.897 644.776 608.081 644.8 606.977 644.8ZM688.708 619.24C689.092 619.96 689.308 620.608 689.356 621.184C689.452 621.76 689.5 622.6 689.5 623.704L689.5 663.664C689.5 666.976 688.588 668.92 686.764 669.496C685.852 669.784 684.7 669.928 683.308 669.928C681.916 669.928 680.812 669.808 679.996 669.568C679.18 669.328 678.556 669.04 678.124 668.704C677.692 668.368 677.356 667.888 677.116 667.264C676.876 666.448 676.756 665.2 676.756 663.52L676.756 639.4C675.556 640.888 673.804 643.264 671.5 646.528C669.196 649.744 667.732 651.76 667.108 652.576C666.484 653.392 666.052 653.968 665.812 654.304C665.572 654.592 664.972 655.024 664.012 655.6C663.1 656.128 662.092 656.392 660.988 656.392C659.932 656.392 658.948 656.152 658.036 655.672C657.172 655.144 656.548 654.64 656.164 654.16L655.588 653.368C654.628 652.168 652.732 649.624 649.9 645.736C647.068 641.8 645.532 639.688 645.292 639.4L645.292 663.664C645.292 664.768 645.244 665.608 645.148 666.184C645.1 666.712 644.884 667.312 644.5 667.984C643.78 669.28 641.908 669.928 638.884 669.928C635.956 669.928 634.132 669.28 633.412 667.984C633.028 667.312 632.788 666.688 632.692 666.112C632.644 665.536 632.62 664.672 632.62 663.52L632.62 623.56C632.62 622.456 632.644 621.64 632.692 621.112C632.788 620.536 633.028 619.888 633.412 619.168C634.132 617.92 636.004 617.296 639.028 617.296C640.324 617.296 641.428 617.464 642.34 617.8C643.3 618.088 643.924 618.4 644.212 618.736L644.644 619.168L660.988 640.624C669.148 629.824 674.596 622.696 677.332 619.24C678.148 617.944 680.068 617.296 683.092 617.296C686.164 617.296 688.036 617.944 688.708 619.24ZM718.452 636.088C718.74 633.4 720.636 632.056 724.14 632.056C726.012 632.056 727.404 632.2 728.316 632.488C729.228 632.776 729.852 633.28 730.188 634C730.572 634.72 730.788 635.368 730.836 635.944C730.932 636.472 730.98 637.288 730.98 638.392L730.98 663.592C730.98 664.696 730.932 665.536 730.836 666.112C730.788 666.64 730.596 667.264 730.26 667.984C729.588 669.232 727.932 669.856 725.292 669.856C722.7 669.856 720.948 669.544 720.036 668.92C719.172 668.248 718.668 667.288 718.524 666.04C716.748 668.584 713.772 669.856 709.596 669.856C705.468 669.856 701.628 667.96 698.076 664.168C694.524 660.376 692.748 655.984 692.748 650.992C692.748 645.952 694.524 641.56 698.076 637.816C701.676 634.024 705.612 632.128 709.884 632.128C711.516 632.128 713.004 632.416 714.348 632.992C715.692 633.568 716.628 634.12 717.156 634.648C717.684 635.128 718.116 635.608 718.452 636.088ZM705.348 651.064C705.348 652.648 705.972 654.088 707.22 655.384C708.468 656.632 709.98 657.256 711.756 657.256C713.532 657.256 714.996 656.608 716.148 655.312C717.348 654.016 717.948 652.6 717.948 651.064C717.948 649.48 717.372 648.016 716.22 646.672C715.116 645.328 713.604 644.656 711.684 644.656C709.812 644.656 708.276 645.328 707.076 646.672C705.924 648.016 705.348 649.48 705.348 651.064ZM757.599 650.992L767.175 658.912C768.375 659.92 769.119 660.688 769.407 661.216C769.743 661.744 769.911 662.248 769.911 662.728C769.911 663.88 769.167 665.44 767.679 667.408C766.047 669.424 764.607 670.432 763.359 670.432C762.303 670.432 760.839 669.736 758.967 668.344L758.247 667.84C757.143 666.928 755.439 665.344 753.135 663.088C750.831 660.784 749.079 659.152 747.879 658.192L747.879 663.736C747.879 664.84 747.831 665.68 747.735 666.256C747.687 666.784 747.471 667.408 747.087 668.128C746.463 669.376 744.615 670 741.543 670C738.519 670 736.671 669.352 735.999 668.056C735.663 667.336 735.447 666.712 735.351 666.184C735.303 665.608 735.279 664.768 735.279 663.664L735.279 620.536C735.279 619.432 735.303 618.616 735.351 618.088C735.447 617.512 735.663 616.864 735.999 616.144C736.671 614.848 738.543 614.2 741.615 614.2C743.919 614.2 745.551 614.608 746.511 615.424C747.327 616.096 747.759 617.152 747.807 618.592C747.855 619.024 747.879 619.696 747.879 620.608L747.879 643.432C748.743 642.712 750.039 641.488 751.767 639.76C753.543 638.032 754.863 636.808 755.727 636.088L756.591 635.512C758.271 634.216 759.711 633.568 760.911 633.568C762.111 633.568 763.479 634.552 765.015 636.52C766.599 638.44 767.391 639.952 767.391 641.056C767.391 642.16 766.503 643.456 764.727 644.944L757.599 650.992ZM806.837 646.528C806.837 649.456 806.093 651.64 804.605 653.08C803.165 654.472 801.557 655.168 799.781 655.168L782.717 655.168C782.717 656.512 783.509 657.64 785.093 658.552C786.677 659.464 788.261 659.92 789.845 659.92C792.629 659.92 794.813 659.632 796.397 659.056L797.189 658.768C798.341 658.24 799.301 657.976 800.069 657.976C801.605 657.976 802.925 659.056 804.029 661.216C804.653 662.512 804.965 663.616 804.965 664.528C804.965 668.8 799.853 670.936 789.629 670.936C786.077 670.936 782.909 670.336 780.125 669.136C777.389 667.888 775.253 666.256 773.717 664.24C770.693 660.352 769.181 656.008 769.181 651.208C769.181 645.16 771.125 640.336 775.013 636.736C778.949 633.088 783.845 631.264 789.701 631.264C796.373 631.264 801.269 633.616 804.389 638.32C806.021 640.816 806.837 643.552 806.837 646.528ZM791.645 648.616C793.469 648.616 794.381 647.848 794.381 646.312C794.381 645.208 793.949 644.32 793.085 643.648C792.269 642.976 791.069 642.64 789.485 642.64C787.949 642.64 786.413 643.288 784.877 644.584C783.341 645.832 782.573 647.176 782.573 648.616L791.645 648.616ZM813.55 617.152L853.582 617.152C855.118 617.152 856.246 617.344 856.966 617.728C857.686 618.064 858.166 618.616 858.406 619.384C858.646 620.152 858.766 621.16 858.766 622.408C858.766 623.656 858.646 624.664 858.406 625.432C858.166 626.152 857.758 626.656 857.182 626.944C856.318 627.376 855.094 627.592 853.51 627.592L839.758 627.592L839.758 663.808C839.758 664.912 839.71 665.728 839.614 666.256C839.566 666.784 839.35 667.408 838.966 668.128C838.63 668.8 838.006 669.28 837.094 669.568C836.182 669.856 834.982 670 833.494 670C832.006 670 830.806 669.856 829.894 669.568C829.03 669.28 828.406 668.8 828.022 668.128C827.686 667.408 827.47 666.784 827.374 666.256C827.326 665.68 827.302 664.84 827.302 663.736L827.302 627.592L813.478 627.592C811.942 627.592 810.814 627.424 810.094 627.088C809.374 626.704 808.894 626.128 808.654 625.36C808.414 624.592 808.294 623.584 808.294 622.336C808.294 621.088 808.414 620.104 808.654 619.384C808.894 618.616 809.302 618.088 809.878 617.8C810.742 617.368 811.966 617.152 813.55 617.152ZM882.342 632.2C887.142 632.2 891.126 634.024 894.294 637.672C897.51 641.32 899.118 645.784 899.118 651.064L899.118 663.736C899.118 664.84 899.07 665.68 898.974 666.256C898.926 666.784 898.71 667.408 898.326 668.128C897.702 669.376 895.854 670 892.782 670C889.854 670 888.03 669.376 887.31 668.128C886.926 667.408 886.686 666.76 886.59 666.184C886.542 665.608 886.518 664.744 886.518 663.592L886.518 650.992C886.518 649.024 885.966 647.488 884.862 646.384C883.758 645.28 882.342 644.728 880.614 644.728C878.934 644.728 877.446 645.256 876.15 646.312C874.854 647.32 874.11 648.472 873.918 649.768L873.918 663.736C873.918 664.84 873.87 665.68 873.774 666.256C873.726 666.784 873.51 667.408 873.126 668.128C872.502 669.376 870.654 670 867.582 670C864.558 670 862.71 669.352 862.038 668.056C861.702 667.336 861.486 666.712 861.39 666.184C861.342 665.656 861.318 664.816 861.318 663.664L861.318 620.608C861.318 619.504 861.342 618.688 861.39 618.16C861.486 617.584 861.702 616.96 862.038 616.288C862.71 614.992 864.582 614.344 867.654 614.344C870.678 614.344 872.502 614.992 873.126 616.288C873.51 617.008 873.726 617.656 873.774 618.232C873.87 618.76 873.918 619.576 873.918 620.68L873.918 636.592C876.318 633.664 879.126 632.2 882.342 632.2ZM940.048 646.528C940.048 649.456 939.304 651.64 937.816 653.08C936.376 654.472 934.768 655.168 932.992 655.168L915.928 655.168C915.928 656.512 916.72 657.64 918.304 658.552C919.888 659.464 921.472 659.92 923.056 659.92C925.84 659.92 928.024 659.632 929.608 659.056L930.4 658.768C931.552 658.24 932.512 657.976 933.28 657.976C934.816 657.976 936.136 659.056 937.24 661.216C937.864 662.512 938.176 663.616 938.176 664.528C938.176 668.8 933.064 670.936 922.84 670.936C919.288 670.936 916.12 670.336 913.336 669.136C910.6 667.888 908.464 666.256 906.928 664.24C903.904 660.352 902.392 656.008 902.392 651.208C902.392 645.16 904.336 640.336 908.224 636.736C912.16 633.088 917.056 631.264 922.912 631.264C929.584 631.264 934.48 633.616 937.6 638.32C939.232 640.816 940.048 643.552 940.048 646.528ZM924.856 648.616C926.68 648.616 927.592 647.848 927.592 646.312C927.592 645.208 927.16 644.32 926.296 643.648C925.48 642.976 924.28 642.64 922.696 642.64C921.16 642.64 919.624 643.288 918.088 644.584C916.552 645.832 915.784 647.176 915.784 648.616L924.856 648.616ZM571.024 704.512C574.24 705.664 575.848 707.2 575.848 709.12C575.848 709.744 575.56 710.92 574.984 712.648L561.16 752.608C561.064 752.944 560.896 753.352 560.656 753.832C560.416 754.312 559.768 754.96 558.712 755.776C557.704 756.544 556.48 756.928 555.04 756.928C553.648 756.928 552.424 756.544 551.368 755.776C550.36 754.96 549.688 754.168 549.352 753.4L540.928 728.56C535.6 744.304 532.888 752.32 532.792 752.608C532.696 752.896 532.48 753.304 532.144 753.832C531.808 754.36 531.424 754.84 530.992 755.272C529.888 756.376 528.568 756.928 527.032 756.928C525.496 756.928 524.224 756.568 523.216 755.848C522.256 755.128 521.608 754.408 521.272 753.688L520.768 752.608L506.872 712.648C506.344 711.064 506.08 709.888 506.08 709.12C506.08 707.2 507.688 705.688 510.904 704.584C512.296 704.104 513.544 703.864 514.648 703.864C515.8 703.864 516.664 704.248 517.24 705.016C517.864 705.784 518.416 706.96 518.896 708.544L526.816 732.592L534.664 708.904C535.336 706.888 536.56 705.496 538.336 704.728C539.104 704.392 540.088 704.224 541.288 704.224C542.536 704.224 543.688 704.632 544.744 705.448C545.8 706.216 546.472 706.984 546.76 707.752L555.04 732.736L562.96 708.544C563.344 707.44 563.656 706.624 563.896 706.096C564.136 705.568 564.568 705.064 565.192 704.584C565.864 704.056 566.68 703.792 567.64 703.792C568.6 703.792 569.728 704.032 571.024 704.512ZM572.227 738.064C572.227 732.304 574.243 727.552 578.275 723.808C582.307 720.064 586.915 718.192 592.099 718.192C597.283 718.192 601.867 720.064 605.851 723.808C609.835 727.504 611.827 732.232 611.827 737.992C611.827 741.976 610.795 745.528 608.731 748.648C606.667 751.72 604.147 754 601.171 755.488C598.243 756.928 595.195 757.648 592.027 757.648C588.859 757.648 585.787 756.88 582.811 755.344C579.835 753.76 577.315 751.456 575.251 748.432C573.235 745.36 572.227 741.904 572.227 738.064ZM587.275 743.248C588.811 744.4 590.371 744.976 591.955 744.976C593.539 744.976 595.123 744.376 596.707 743.176C598.291 741.976 599.083 740.2 599.083 737.848C599.083 735.496 598.339 733.744 596.851 732.592C595.363 731.44 593.755 730.864 592.027 730.864C590.299 730.864 588.691 731.464 587.203 732.664C585.715 733.864 584.971 735.64 584.971 737.992C584.971 740.296 585.739 742.048 587.275 743.248ZM640.815 719.488C641.727 719.776 642.471 720.28 643.047 721C643.671 721.672 643.983 722.776 643.983 724.312C643.983 725.848 643.527 727.528 642.615 729.352C641.703 731.176 640.383 732.088 638.655 732.088C637.791 732.088 636.951 731.896 636.135 731.512C635.367 731.128 634.335 730.936 633.039 730.936C631.743 730.936 630.519 731.392 629.367 732.304C628.263 733.216 627.711 734.32 627.711 735.616L627.711 750.736C627.711 751.84 627.663 752.68 627.567 753.256C627.519 753.784 627.303 754.408 626.919 755.128C626.199 756.376 624.327 757 621.303 757C618.999 757 617.343 756.592 616.335 755.776C615.567 755.104 615.135 754.072 615.039 752.68C615.039 752.2 615.039 751.504 615.039 750.592L615.039 725.32C615.039 724.216 615.063 723.4 615.111 722.872C615.207 722.296 615.423 721.672 615.759 721C616.431 719.704 618.303 719.056 621.375 719.056C624.255 719.056 626.055 719.608 626.775 720.712C627.303 721.48 627.567 722.272 627.567 723.088C627.807 722.752 628.143 722.344 628.575 721.864C629.055 721.384 630.039 720.736 631.527 719.92C633.015 719.104 634.311 718.696 635.415 718.696C636.567 718.696 637.527 718.768 638.295 718.912C639.063 719.008 639.903 719.2 640.815 719.488ZM646.505 707.536C646.505 706.432 646.529 705.616 646.577 705.088C646.673 704.512 646.889 703.864 647.225 703.144C647.897 701.848 649.769 701.2 652.841 701.2C655.769 701.2 657.593 701.848 658.313 703.144C658.697 703.864 658.913 704.512 658.961 705.088C659.057 705.664 659.105 706.504 659.105 707.608L659.105 740.944C659.105 742.672 659.249 743.776 659.537 744.256C659.825 744.688 660.449 744.904 661.409 744.904C662.417 744.904 663.089 744.952 663.425 745.048C663.761 745.096 664.169 745.288 664.649 745.624C665.609 746.248 666.089 747.952 666.089 750.736C666.089 753.76 665.609 755.608 664.649 756.28C663.401 757.144 660.425 757.288 655.721 756.712C652.025 756.232 649.625 755.008 648.521 753.04C647.177 750.688 646.505 746.944 646.505 741.808L646.505 707.536ZM694.036 703.288C694.42 702.568 695.068 702.064 695.98 701.776C696.892 701.488 698.092 701.344 699.58 701.344C701.116 701.344 702.34 701.488 703.252 701.776C704.164 702.064 704.788 702.568 705.124 703.288C705.508 704.008 705.724 704.656 705.772 705.232C705.868 705.76 705.916 706.576 705.916 707.68L705.916 750.664C705.916 751.768 705.868 752.608 705.772 753.184C705.724 753.712 705.508 754.312 705.124 754.984C704.404 756.28 702.364 756.928 699.004 756.928C695.692 756.928 693.844 755.752 693.46 753.4C691.444 755.704 688.636 756.856 685.036 756.856C680.716 756.856 676.78 754.984 673.228 751.24C669.676 747.448 667.9 743.056 667.9 738.064C667.9 733.024 669.676 728.608 673.228 724.816C676.828 721.024 680.764 719.128 685.036 719.128C688.588 719.128 691.348 720.328 693.316 722.728L693.316 707.608C693.316 706.504 693.34 705.688 693.388 705.16C693.484 704.584 693.7 703.96 694.036 703.288ZM682.372 742.384C683.62 743.68 685.132 744.328 686.908 744.328C688.684 744.328 690.148 743.68 691.3 742.384C692.5 741.088 693.1 739.672 693.1 738.136C693.1 736.552 692.524 735.088 691.372 733.744C690.268 732.4 688.756 731.728 686.836 731.728C684.916 731.728 683.38 732.4 682.228 733.744C681.076 735.04 680.5 736.48 680.5 738.064C680.5 739.648 681.124 741.088 682.372 742.384ZM754.486 725.176L767.158 725.176C769.75 725.272 771.334 725.944 771.91 727.192C772.39 728.104 772.63 729.448 772.63 731.224L772.63 747.064C772.63 748.6 771.958 750.064 770.614 751.456C766.582 755.632 760.534 757.72 752.47 757.72C745.318 757.72 739.102 755.032 733.822 749.656C728.542 744.232 725.902 737.704 725.902 730.072C725.902 722.44 728.59 716.08 733.966 710.992C739.342 705.856 745.678 703.288 752.974 703.288C758.638 703.288 763.99 705.16 769.03 708.904C770.326 709.864 770.974 710.944 770.974 712.144C770.974 713.296 770.422 714.64 769.318 716.176C767.446 718.72 765.742 719.992 764.206 719.992C763.294 719.992 761.83 719.344 759.814 718.048C757.798 716.704 755.398 716.032 752.614 716.032C748.966 716.032 745.726 717.328 742.894 719.92C740.062 722.464 738.646 725.824 738.646 730C738.646 734.128 740.086 737.656 742.966 740.584C745.846 743.464 749.11 744.904 752.758 744.904C755.398 744.904 757.774 744.472 759.886 743.608L759.886 735.76L754.198 735.76C752.71 735.76 751.654 735.568 751.03 735.184C750.406 734.8 749.998 734.248 749.806 733.528C749.614 732.76 749.518 731.752 749.518 730.504C749.518 729.208 749.614 728.176 749.806 727.408C750.046 726.64 750.454 726.112 751.03 725.824C751.894 725.392 753.046 725.176 754.486 725.176ZM776.941 707.536C776.941 706.432 776.965 705.616 777.013 705.088C777.109 704.512 777.325 703.864 777.661 703.144C778.333 701.848 780.205 701.2 783.277 701.2C786.205 701.2 788.029 701.848 788.749 703.144C789.133 703.864 789.349 704.512 789.397 705.088C789.493 705.664 789.541 706.504 789.541 707.608L789.541 740.944C789.541 742.672 789.685 743.776 789.973 744.256C790.261 744.688 790.885 744.904 791.845 744.904C792.853 744.904 793.525 744.952 793.861 745.048C794.197 745.096 794.605 745.288 795.085 745.624C796.045 746.248 796.525 747.952 796.525 750.736C796.525 753.76 796.045 755.608 795.085 756.28C793.837 757.144 790.861 757.288 786.157 756.712C782.461 756.232 780.061 755.008 778.957 753.04C777.613 750.688 776.941 746.944 776.941 741.808L776.941 707.536ZM797.975 738.064C797.975 732.304 799.991 727.552 804.023 723.808C808.055 720.064 812.663 718.192 817.847 718.192C823.031 718.192 827.615 720.064 831.599 723.808C835.583 727.504 837.575 732.232 837.575 737.992C837.575 741.976 836.543 745.528 834.479 748.648C832.415 751.72 829.895 754 826.919 755.488C823.991 756.928 820.943 757.648 817.775 757.648C814.607 757.648 811.535 756.88 808.559 755.344C805.583 753.76 803.063 751.456 800.999 748.432C798.983 745.36 797.975 741.904 797.975 738.064ZM813.023 743.248C814.559 744.4 816.119 744.976 817.703 744.976C819.287 744.976 820.871 744.376 822.455 743.176C824.039 741.976 824.831 740.2 824.831 737.848C824.831 735.496 824.087 733.744 822.599 732.592C821.111 731.44 819.503 730.864 817.775 730.864C816.047 730.864 814.439 731.464 812.951 732.664C811.463 733.864 810.719 735.64 810.719 737.992C810.719 740.296 811.487 742.048 813.023 743.248ZM887.909 719.344C890.981 720.688 892.517 722.344 892.517 724.312C892.517 725.128 892.133 726.448 891.365 728.272C890.597 730.048 889.949 731.608 889.421 732.952L881.501 752.248C880.781 754.36 879.581 755.848 877.901 756.712C877.181 757.048 876.269 757.216 875.165 757.216C874.061 757.216 872.981 756.808 871.925 755.992C870.917 755.128 870.245 754.264 869.909 753.4L869.333 752.176C868.949 751.216 867.533 747.472 865.085 740.944C864.605 742.096 863.885 743.992 862.925 746.632C862.013 749.224 861.413 750.856 861.125 751.528C860.885 752.152 860.717 752.584 860.621 752.824C860.573 753.016 860.381 753.4 860.045 753.976C859.709 754.552 859.325 755.056 858.893 755.488C857.741 756.64 856.421 757.216 854.933 757.216C853.445 757.216 852.197 756.808 851.189 755.992C850.181 755.128 849.509 754.264 849.173 753.4L838.301 726.904C837.821 725.464 837.581 724.528 837.581 724.096C837.581 722.176 838.949 720.664 841.685 719.56C843.221 718.936 844.469 718.624 845.429 718.624C846.389 718.624 847.157 718.84 847.733 719.272C848.357 719.656 848.789 720.064 849.029 720.496C849.269 720.88 849.461 721.288 849.605 721.72C850.421 723.64 852.125 728.152 854.717 735.256L858.965 723.592C859.253 722.632 859.781 721.792 860.549 721.072C861.941 719.68 863.357 718.984 864.797 718.984C866.237 718.984 867.461 719.368 868.469 720.136C869.525 720.904 870.245 721.672 870.629 722.44L871.205 723.664C873.605 730.384 875.021 734.224 875.453 735.184L879.845 723.232C880.997 720.16 882.725 718.624 885.029 718.624C885.941 718.624 886.901 718.864 887.909 719.344ZM895.755 746.056C896.235 745.096 896.955 744.448 897.915 744.112C898.923 743.776 900.459 743.608 902.523 743.608C904.635 743.608 906.147 744.064 907.059 744.976C908.019 745.888 908.499 747.328 908.499 749.296L908.499 750.448C908.499 751.6 908.451 752.464 908.355 753.04C908.307 753.568 908.091 754.216 907.707 754.984C906.939 756.376 905.091 757.072 902.163 757.072C899.283 757.072 897.363 756.616 896.403 755.704C895.491 754.744 895.035 752.92 895.035 750.232C895.035 748.36 895.275 746.968 895.755 746.056ZM905.403 737.632C904.491 737.872 903.267 737.992 901.731 737.992C900.195 737.992 898.971 737.872 898.059 737.632C897.147 737.392 896.499 736.96 896.115 736.336C895.779 735.712 895.563 735.16 895.467 734.68C895.419 734.2 895.395 733.456 895.395 732.448L895.395 709.624C895.395 708.616 895.419 707.872 895.467 707.392C895.563 706.864 895.803 706.288 896.187 705.664C896.571 705.04 897.219 704.608 898.131 704.368C899.043 704.08 900.267 703.936 901.803 703.936C903.339 703.936 904.563 704.08 905.475 704.368C906.387 704.608 907.011 705.064 907.347 705.736C907.731 706.36 907.947 706.936 907.995 707.464C908.091 707.944 908.139 708.688 908.139 709.696L908.139 732.52C908.139 733.528 908.091 734.272 907.995 734.752C907.947 735.232 907.731 735.784 907.347 736.408C906.963 736.984 906.315 737.392 905.403 737.632ZM571.024 791.512C574.24 792.664 575.848 794.2 575.848 796.12C575.848 796.744 575.56 797.92 574.984 799.648L561.16 839.608C561.064 839.944 560.896 840.352 560.656 840.832C560.416 841.312 559.768 841.96 558.712 842.776C557.704 843.544 556.48 843.928 555.04 843.928C553.648 843.928 552.424 843.544 551.368 842.776C550.36 841.96 549.688 841.168 549.352 840.4L540.928 815.56C535.6 831.304 532.888 839.32 532.792 839.608C532.696 839.896 532.48 840.304 532.144 840.832C531.808 841.36 531.424 841.84 530.992 842.272C529.888 843.376 528.568 843.928 527.032 843.928C525.496 843.928 524.224 843.568 523.216 842.848C522.256 842.128 521.608 841.408 521.272 840.688L520.768 839.608L506.872 799.648C506.344 798.064 506.08 796.888 506.08 796.12C506.08 794.2 507.688 792.688 510.904 791.584C512.296 791.104 513.544 790.864 514.648 790.864C515.8 790.864 516.664 791.248 517.24 792.016C517.864 792.784 518.416 793.96 518.896 795.544L526.816 819.592L534.664 795.904C535.336 793.888 536.56 792.496 538.336 791.728C539.104 791.392 540.088 791.224 541.288 791.224C542.536 791.224 543.688 791.632 544.744 792.448C545.8 793.216 546.472 793.984 546.76 794.752L555.04 819.736L562.96 795.544C563.344 794.44 563.656 793.624 563.896 793.096C564.136 792.568 564.568 792.064 565.192 791.584C565.864 791.056 566.68 790.792 567.64 790.792C568.6 790.792 569.728 791.032 571.024 791.512ZM576.19 812.392C576.19 811.288 576.214 810.472 576.262 809.944C576.358 809.368 576.574 808.72 576.91 808C577.582 806.752 579.454 806.128 582.526 806.128C584.83 806.128 586.462 806.536 587.422 807.352C588.238 808.024 588.67 809.056 588.718 810.448C588.766 810.928 588.79 811.624 588.79 812.536L588.79 837.736C588.79 838.84 588.742 839.68 588.646 840.256C588.598 840.784 588.382 841.408 587.998 842.128C587.374 843.376 585.526 844 582.454 844C579.43 844 577.582 843.352 576.91 842.056C576.574 841.336 576.358 840.712 576.262 840.184C576.214 839.656 576.19 838.816 576.19 837.664L576.19 812.392ZM587.998 799.072C587.662 799.744 587.038 800.224 586.126 800.512C585.214 800.8 583.99 800.944 582.454 800.944C580.966 800.944 579.766 800.8 578.854 800.512C577.942 800.224 577.294 799.72 576.91 799C576.574 798.28 576.358 797.656 576.262 797.128C576.214 796.552 576.19 795.712 576.19 794.608C576.19 793.504 576.214 792.688 576.262 792.16C576.358 791.584 576.574 790.96 576.91 790.288C577.582 788.992 579.454 788.344 582.526 788.344C585.55 788.344 587.374 788.992 587.998 790.288C588.382 791.008 588.598 791.656 588.646 792.232C588.742 792.76 588.79 793.576 588.79 794.68C588.79 795.784 588.742 796.624 588.646 797.2C588.598 797.728 588.382 798.352 587.998 799.072ZM615.134 818.8L610.454 818.512L610.454 828.448C610.454 829.744 610.646 830.68 611.03 831.256C611.462 831.832 612.23 832.12 613.334 832.12C614.486 832.12 615.35 832.168 615.926 832.264C616.55 832.312 617.198 832.528 617.87 832.912C618.974 833.536 619.526 835.144 619.526 837.736C619.526 840.76 618.854 842.608 617.51 843.28C616.79 843.616 616.142 843.832 615.566 843.928C615.038 843.976 614.246 844 613.19 844C608.198 844 604.406 842.872 601.814 840.616C599.222 838.36 597.926 834.544 597.926 829.168L597.926 818.512C597.014 818.656 596.03 818.728 594.974 818.728C593.918 818.728 593.03 818.32 592.31 817.504C591.638 816.688 591.302 815.296 591.302 813.328C591.302 811.36 591.422 809.944 591.662 809.08C591.902 808.168 592.238 807.52 592.67 807.136C593.438 806.512 594.398 806.2 595.55 806.2L597.926 806.488L597.926 799.072C597.926 797.968 597.95 797.152 597.998 796.624C598.094 796.096 598.334 795.52 598.718 794.896C599.342 793.696 601.19 793.096 604.262 793.096C607.526 793.096 609.47 793.984 610.094 795.76C610.334 796.528 610.454 797.752 610.454 799.432L610.454 806.488C612.566 806.296 614.15 806.2 615.206 806.2C616.31 806.2 617.126 806.248 617.654 806.344C618.23 806.392 618.878 806.608 619.598 806.992C620.846 807.616 621.47 809.464 621.47 812.536C621.47 815.56 620.822 817.408 619.526 818.08C618.806 818.416 618.158 818.632 617.582 818.728C617.054 818.776 616.238 818.8 615.134 818.8ZM645.029 806.2C649.829 806.2 653.813 808.024 656.981 811.672C660.197 815.32 661.805 819.784 661.805 825.064L661.805 837.736C661.805 838.84 661.757 839.68 661.661 840.256C661.613 840.784 661.397 841.408 661.013 842.128C660.389 843.376 658.541 844 655.469 844C652.541 844 650.717 843.376 649.997 842.128C649.613 841.408 649.373 840.76 649.277 840.184C649.229 839.608 649.205 838.744 649.205 837.592L649.205 824.992C649.205 823.024 648.653 821.488 647.549 820.384C646.445 819.28 645.029 818.728 643.301 818.728C641.621 818.728 640.133 819.256 638.837 820.312C637.541 821.32 636.797 822.472 636.605 823.768L636.605 837.736C636.605 838.84 636.557 839.68 636.461 840.256C636.413 840.784 636.197 841.408 635.813 842.128C635.189 843.376 633.341 844 630.269 844C627.245 844 625.397 843.352 624.725 842.056C624.389 841.336 624.173 840.712 624.077 840.184C624.029 839.656 624.005 838.816 624.005 837.664L624.005 794.608C624.005 793.504 624.029 792.688 624.077 792.16C624.173 791.584 624.389 790.96 624.725 790.288C625.397 788.992 627.269 788.344 630.341 788.344C633.365 788.344 635.189 788.992 635.813 790.288C636.197 791.008 636.413 791.656 636.461 792.232C636.557 792.76 636.605 793.576 636.605 794.68L636.605 810.592C639.005 807.664 641.813 806.2 645.029 806.2ZM717.418 793.168C717.898 792.4 718.594 791.872 719.506 791.584C720.418 791.296 721.546 791.152 722.89 791.152C724.282 791.152 725.386 791.272 726.202 791.512C727.018 791.752 727.642 792.04 728.074 792.376C728.506 792.712 728.818 793.216 729.01 793.888C729.298 794.704 729.442 795.952 729.442 797.632L729.442 819.376C729.442 825.712 727.474 831.472 723.538 836.656C721.618 839.104 719.146 841.096 716.122 842.632C713.098 844.12 709.738 844.864 706.042 844.864C702.394 844.864 699.058 844.096 696.034 842.56C693.058 841.024 690.634 839.008 688.762 836.512C684.874 831.424 682.93 825.664 682.93 819.232L682.93 797.56C682.93 796.408 682.954 795.568 683.002 795.04C683.098 794.464 683.338 793.816 683.722 793.096C684.106 792.376 684.754 791.872 685.666 791.584C686.578 791.296 687.802 791.152 689.338 791.152C690.874 791.152 692.098 791.296 693.01 791.584C693.922 791.872 694.546 792.376 694.882 793.096C695.458 794.2 695.746 795.712 695.746 797.632L695.746 819.232C695.746 822.16 696.466 824.944 697.906 827.584C698.626 828.928 699.706 830.008 701.146 830.824C702.586 831.64 704.29 832.048 706.258 832.048C709.762 832.048 712.378 830.752 714.106 828.16C715.834 825.568 716.698 822.568 716.698 819.16L716.698 797.128C716.698 795.256 716.938 793.936 717.418 793.168ZM732.614 840.616C731.702 840.04 731.246 839.128 731.246 837.88C731.246 836.632 732.158 834.736 733.982 832.192C734.51 831.376 735.35 830.968 736.502 830.968C737.702 830.968 739.31 831.568 741.326 832.768C743.342 833.92 745.166 834.496 746.798 834.496C749.726 834.496 751.19 833.92 751.19 832.768C751.19 831.856 749.582 831.184 746.366 830.752C743.342 830.32 740.342 829.192 737.366 827.368C735.974 826.504 734.822 825.16 733.91 823.336C732.998 821.464 732.542 819.256 732.542 816.712C732.542 809.128 737.75 805.336 748.166 805.336C751.574 805.336 755.078 806.152 758.678 807.784C760.358 808.552 761.198 809.512 761.198 810.664C761.198 811.816 760.67 813.232 759.614 814.912C758.558 816.592 757.478 817.432 756.374 817.432C755.798 817.432 754.718 817.072 753.134 816.352C751.598 815.632 749.918 815.272 748.094 815.272C745.262 815.272 743.846 815.8 743.846 816.856C743.846 818.296 745.478 819.232 748.742 819.664C751.91 820 754.982 820.912 757.958 822.4C759.35 823.072 760.502 824.248 761.414 825.928C762.374 827.56 762.854 829.624 762.854 832.12C762.854 834.616 762.374 836.752 761.414 838.528C760.502 840.256 759.206 841.552 757.526 842.416C754.454 843.904 750.59 844.648 745.934 844.648C741.326 844.648 736.886 843.304 732.614 840.616ZM788.787 807.64C791.283 807.64 792.987 808.12 793.899 809.08C794.859 810.04 795.339 811.84 795.339 814.48C795.291 815.632 795.219 816.496 795.123 817.072C795.075 817.6 794.835 818.248 794.403 819.016C793.683 820.408 791.859 821.104 788.931 821.104C786.051 821.104 784.131 820.648 783.171 819.736C782.259 818.776 781.803 816.952 781.803 814.264C781.803 811.48 782.307 809.704 783.315 808.936C784.515 808.072 786.339 807.64 788.787 807.64ZM788.787 830.608C791.283 830.608 792.987 831.088 793.899 832.048C794.859 832.96 795.339 834.76 795.339 837.448C795.291 838.6 795.219 839.464 795.123 840.04C795.075 840.568 794.835 841.216 794.403 841.984C793.683 843.376 791.859 844.072 788.931 844.072C786.051 844.072 784.131 843.616 783.171 842.704C782.259 841.744 781.803 839.92 781.803 837.232C781.803 834.448 782.307 832.672 783.315 831.904C784.515 831.04 786.339 830.608 788.787 830.608ZM798.168 851.704C798.696 851.416 799.152 851.248 799.536 851.2C799.968 851.152 800.64 851.128 801.552 851.128C802.464 851.128 803.424 850.576 804.432 849.472C805.488 848.416 806.472 846.832 807.384 844.72C809.4 839.968 810.408 833.152 810.408 824.272C810.408 819.904 810.096 815.944 809.472 812.392C808.896 808.792 808.152 805.96 807.24 803.896C805.272 799.624 803.352 797.488 801.48 797.488L801.048 797.488C799.752 797.488 798.816 797.344 798.24 797.056C797.28 796.528 796.8 795.208 796.8 793.096C796.8 790.936 797.184 789.592 797.952 789.064C798.72 788.488 799.872 788.2 801.408 788.2C804.816 788.2 807.84 789.376 810.48 791.728C813.12 794.032 815.208 797.056 816.744 800.8C819.72 808.144 821.208 816.016 821.208 824.416C821.208 832.864 819.648 840.784 816.528 848.176C814.992 851.776 812.904 854.704 810.264 856.96C807.672 859.264 804.744 860.416 801.48 860.416C799.032 860.416 797.592 859.744 797.16 858.4C796.92 857.776 796.8 856.912 796.8 855.808C796.8 854.704 796.896 853.816 797.088 853.144C797.328 852.472 797.688 851.992 798.168 851.704Z" fill="black"/>
</g>
</g>
</g>
<defs>
<clipPath id="clip0_0_1">
<rect width="1440" height="1024" fill="white"/>
</clipPath>
</defs>
</svg>
